<?xml version="1.0" encoding="UTF-8" standalone="no"?>
<svg
   width="128"
   height="128"
   version="1.1"
   id="svg6"
   sodipodi:docname="ColorVariable.svg"
   inkscape:version="1.4.3 (0d15f75042, 2025-12-25)"
   xml:space="preserve"
   xmlns:inkscape="http://www.inkscape.org/namespaces/inkscape"
   xmlns:sodipodi="http://sodipodi.sourceforge.net/DTD/sodipodi-0.dtd"
   xmlns="http://www.w3.org/2000/svg"
   xmlns:svg="http://www.w3.org/2000/svg"><defs
     id="defs6" /><sodipodi:namedview
     id="namedview6"
     pagecolor="#505050"
     bordercolor="#eeeeee"
     borderopacity="1"
     inkscape:showpageshadow="0"
     inkscape:pageopacity="0"
     inkscape:pagecheckerboard="0"
     inkscape:deskcolor="#505050"
     inkscape:zoom="4.5585937"
     inkscape:cx="45.299057"
     inkscape:cy="68.771208"
     inkscape:window-width="2560"
     inkscape:window-height="1369"
     inkscape:window-x="0"
     inkscape:window-y="0"
     inkscape:window-maximized="1"
     inkscape:current-layer="svg6" /><rect
     width="124"
     height="124"
     x="2"
     y="2"
     fill="#363d52"
     stroke="#212532"
     stroke-width="4"
     rx="14"
     id="rect1" /><g
     style="clip-rule:evenodd;fill-rule:evenodd;image-rendering:optimizeQuality;shape-rendering:geometricPrecision;text-rendering:geometricPrecision"
     id="g1"
     transform="matrix(0.19229424,0,0,0.19229424,14.772675,14.772675)"><path
       fill="#fc3e81"
       d="M 171.11,171.836 74.204,75.761 c 0.258,-0.26 0.517,-0.521 0.777,-0.78 C 124.688,25.274 189.751,0.292 254.899,0.013 l 0.587,136.448 c -32.992,0.139 -62.827,13.641 -84.376,35.375 z"
       id="path1" /><path
       fill="#fd6096"
       d="M 255.486,136.461 254.899,0.003 256,0 c 70.296,0 133.967,28.342 180.232,74.212 L 340.164,171.11 C 318.559,149.689 288.827,136.455 256,136.455 c -0.172,0 -0.343,0.005 -0.514,0.006 z"
       id="path2" /><path
       fill="#f9b200"
       d="m 340.164,171.11 96.075,-96.906 c 0.26,0.258 0.521,0.517 0.78,0.777 49.707,49.707 74.689,114.77 74.968,179.918 l -136.448,0.587 C 375.4,222.494 361.898,192.659 340.164,171.11 Z"
       id="path3" /><path
       fill="#c0ff66"
       d="M 375.539,255.486 511.997,254.899 512,256 c 0,70.296 -28.342,133.967 -74.212,180.232 L 340.89,340.164 c 21.421,-21.605 34.655,-51.337 34.655,-84.164 0,-0.172 -0.005,-0.343 -0.006,-0.514 z"
       id="path4" /><path
       fill="#1dd1d9"
       d="m 340.89,340.164 96.906,96.075 c -0.258,0.26 -0.517,0.521 -0.777,0.78 -49.707,49.707 -114.77,74.689 -179.918,74.968 l -0.587,-136.448 c 32.992,-0.139 62.827,-13.641 84.376,-35.375 z"
       id="path5" /><path
       fill="#64bdff"
       d="M 256.514,375.539 257.101,511.997 256,512 C 185.704,512 122.033,483.658 75.768,437.788 l 96.068,-96.898 c 21.605,21.421 51.337,34.655 84.164,34.655 0.172,0 0.343,-0.005 0.514,-0.006 z"
       id="path6" /><path
       fill="#43a3f9"
       d="m 171.836,340.89 -96.075,96.906 c -0.26,-0.258 -0.521,-0.517 -0.78,-0.777 C 25.274,387.312 0.292,322.249 0.013,257.101 l 136.448,-0.587 c 0.139,32.992 13.641,62.827 35.375,84.376 z"
       id="path7" /><path
       fill="#7884ea"
       d="M 136.461,256.514 0.003,257.101 0,256 C 0,185.704 28.342,122.033 74.212,75.768 l 96.898,96.068 c -21.421,21.605 -34.655,51.337 -34.655,84.164 0,0.172 0.005,0.343 0.006,0.514 z"
       id="path8" /></g></svg>
